<svg width="1184" height="749" viewBox="0 0 1184 749" fill="none" xmlns="http://www.w3.org/2000/svg">
<path d="M0.0249662 764C-7.32146 678.415 1609.39 -144.583 1180.63 374.726V540.374V764H0.0249662Z" fill="#F7F3F3" fill-opacity="0.4"/>
<path fill-rule="evenodd" clip-rule="evenodd" d="M712.783 94.4104C722.117 94.4104 725.511 82.0124 730.814 75.2087C734.608 70.3408 741.083 71.7923 743 64.9774C747.819 47.8406 734.92 35.7793 718.091 35.7793C701.263 35.7793 689.916 46.3574 687.466 62.2591C685.016 78.1607 695.955 94.4104 712.783 94.4104Z" fill="#191847"/>
<path fill-rule="evenodd" clip-rule="evenodd" d="M723.347 92.1793C728.636 95.7159 733.832 97.4247 736.271 96.7271C742.387 94.9779 742.949 70.1526 738.217 60.3656C733.485 50.5787 709.156 46.3129 707.93 65.704C707.504 72.434 710.051 78.4401 713.814 83.341L707.067 118.235H726.667L723.347 92.1793Z" fill="#B28B67"/>
<path fill-rule="evenodd" clip-rule="evenodd" d="M709.204 52.0894C694.191 68.3992 709.261 85.7346 713.39 85.7346C713.657 83.3813 714.47 81.0923 715.661 78.9136C715.029 78.0043 714.654 76.8735 714.654 75.648C714.654 72.6455 716.905 70.2114 719.681 70.2114C720.549 70.2114 721.365 70.4488 722.077 70.8669C728.096 65.1716 735.645 61.2012 739.393 60.4205C745.912 59.0627 724.217 35.7795 709.204 52.0894Z" fill="#191847"/>
<path fill-rule="evenodd" clip-rule="evenodd" d="M700.533 193.441L731.265 304.914L746.153 399.714H757.825L742.094 193.441H700.533Z" fill="#B28B67"/>
<path fill-rule="evenodd" clip-rule="evenodd" d="M700.533 193.441L731.265 304.914L746.153 399.714H757.825L742.094 193.441H700.533Z" fill="black" fill-opacity="0.1"/>
<path fill-rule="evenodd" clip-rule="evenodd" d="M689.539 193.441C691.626 254.646 689.17 286.216 688.703 291.777C688.236 297.338 681.838 333.393 666.694 401.581L679.132 396.841C703.066 334.303 711.223 301.801 713.968 293.589C716.713 285.377 724.004 251.995 735.841 193.441H689.539Z" fill="#B28B67"/>
<path fill-rule="evenodd" clip-rule="evenodd" d="M669.54 395.993C668.422 395.47 667.06 395.974 666.684 397.149C666.109 398.951 665.417 401.415 665.417 402.847C665.417 405.298 666.153 410 666.153 410C668.715 410 712.214 410 712.214 410C712.214 410 714.01 403.414 710.141 402.889C706.273 402.364 703.714 401.941 703.714 401.941L682.532 391.464C682.001 391.201 681.358 391.456 681.152 392.012L679.842 395.537C679.842 395.537 676.261 397.391 674.022 397.391C672.804 397.391 670.964 396.66 669.54 395.993Z" fill="black"/>
<path fill-rule="evenodd" clip-rule="evenodd" d="M746.306 395.993C745.189 395.47 743.826 395.974 743.451 397.149C742.875 398.951 742.183 401.415 742.183 402.847C742.183 405.298 742.919 410 742.919 410C745.482 410 788.981 410 788.981 410C788.981 410 790.776 403.414 786.908 402.889C783.04 402.364 780.481 401.941 780.481 401.941L759.299 391.464C758.767 391.201 758.125 391.456 757.918 392.012L756.608 395.537C756.608 395.537 753.027 397.391 750.788 397.391C749.57 397.391 747.731 396.66 746.306 395.993Z" fill="black"/>
<path fill-rule="evenodd" clip-rule="evenodd" d="M696.45 193.441L709.517 250.236H749.427L743.477 193.441H696.45Z" fill="#374A3B"/>
<path fill-rule="evenodd" clip-rule="evenodd" d="M689.1 193.441C682.651 214.89 686.65 250.236 686.65 250.236H727.377L738.577 193.441H689.1Z" fill="#446143"/>
<path fill-rule="evenodd" clip-rule="evenodd" d="M795.571 204.095L772.436 179.055L764.752 193.806L788.809 209.543C794.841 220.085 798.384 224.64 799.437 223.208C800.326 222.001 799.918 220.677 799.544 219.458C799.251 218.509 798.979 217.622 799.353 216.904C800.208 215.262 805.038 216.202 809.587 217.312C814.136 218.421 813.084 215.942 812.117 214.648C807.817 210.798 802.302 207.281 795.571 204.095ZM659.208 240.476C661.601 235.089 669.751 182.586 669.751 182.586L686.818 182.661C686.818 182.661 671.011 239.274 669.751 242.738C668.115 247.238 670.895 253.776 672.78 258.21C673.071 258.895 673.342 259.531 673.571 260.101C670.955 261.399 669.699 259.83 668.374 258.175C666.878 256.306 665.295 254.328 661.568 256.252C660.129 256.995 658.766 257.874 657.435 258.732C652.837 261.697 648.614 264.422 642.868 260.488C641.957 259.864 640.958 257.516 643.37 255.681C649.379 251.11 658.038 243.109 659.208 240.476Z" fill="#B28B67"/>
<path fill-rule="evenodd" clip-rule="evenodd" d="M718.251 103.132L725.313 101.788C737.471 135.486 758.698 166.105 788.993 193.645L766.1 224.504C735.808 185.29 717.136 144.833 718.251 103.132Z" fill="#321847"/>
<path fill-rule="evenodd" clip-rule="evenodd" d="M687.467 201.596H750.35C750.35 201.596 728.497 142.643 728.497 101.436L709.528 98.3003C694.62 124.902 690.41 157.654 687.467 201.596Z" fill="#DDE3E9"/>
<path fill-rule="evenodd" clip-rule="evenodd" d="M658.883 231.497C665.76 145.414 709.112 98.3003 709.112 98.3003L709.127 98.3152C709.129 98.3102 709.132 98.3053 709.134 98.3003H710.372C712.595 98.3852 717.142 98.6063 717.142 98.6063L721.726 113.139C722.453 139.718 730.22 220.267 730.22 220.267H689.059C689.129 223.96 689.284 227.706 689.533 231.497H658.883Z" fill="#602F76"/>
<path fill-rule="evenodd" clip-rule="evenodd" d="M689.066 220.624C688.738 204.541 690.024 189.44 692.169 175.774C693.291 191.99 695.636 211.503 700.533 220.624H689.066Z" fill="black" fill-opacity="0.1"/>
<path fill-rule="evenodd" clip-rule="evenodd" d="M698.174 192.535L718.5 182.051V192.535H698.174Z" fill="white" fill-opacity="0.2"/>
<path d="M723.541 91.0001C716.85 81.5 741 78.5 741 78.5L742.5 89.5L739.5 97L735 98.5C735 98.5 730.231 100.5 723.541 91.0001Z" fill="#F3D053"/>
<path d="M741 78.5C741 78.5 716.85 81.5 723.541 91.0001C730.231 100.5 735 98.5 735 98.5L739.5 97L742.5 89.5L741 78.5ZM741 78.5L722 71" stroke="black" stroke-width="0.5"/>
<path d="M722.5 87L715.5 79.5" stroke="black" stroke-width="0.5"/>
<path fill-rule="evenodd" clip-rule="evenodd" d="M957.545 75.2443C951.048 79.1475 944.664 81.0333 941.667 80.2635C934.153 78.333 933.462 50.9351 939.276 40.1339C945.09 29.3328 974.98 24.625 976.486 46.0255C977.009 53.4529 973.88 60.0814 969.257 65.4901L977.547 104H953.467L957.545 75.2443Z" fill="#B28B67"/>
<path fill-rule="evenodd" clip-rule="evenodd" d="M949.657 41.5711C953.051 43.3578 955.421 46.8277 958.289 51.4139C958.97 51.1468 959.713 51.0001 960.49 51.0001C963.815 51.0001 966.51 53.6864 966.51 57.0001C966.51 58.6823 965.815 60.2029 964.696 61.2923C966.089 63.2519 967.65 65.299 969.439 67.4113C976.159 63.3928 981.146 51.6291 974.576 40.3284C972.76 34.7924 968.649 31.8354 963.793 30.4623C959.86 28.8225 955.777 28.6377 952.331 29.6207C945.574 30.1983 939.541 32.2516 937.831 33.4711C937.831 39.8463 939.071 41.7378 949.657 41.5711V41.5711Z" fill="#191847"/>
<path d="M935.5 61V58.5L949.5 56L954 58.5V66.5V71.5L949.5 75.5L944.5 80.5H940.5L937.5 75.5L935.5 68.5V61Z" fill="#F0F0F0"/>
<path d="M957.5 52.5L949.5 56M954 71.5L949.5 75.5L944.5 80.5H940.5L937.5 75.5L935.5 68.5V61V58.5L949.5 56M954 71.5V66.5V58.5L949.5 56M954 71.5L964.5 61" stroke="black" stroke-width="0.5"/>
<path fill-rule="evenodd" clip-rule="evenodd" d="M985.573 187L949.197 314.227L922.657 408H903.3L931.503 187H985.573Z" fill="#191847"/>
<path fill-rule="evenodd" clip-rule="evenodd" d="M995.301 187C996.143 252.574 999.012 288.34 999.895 294.298C1000.78 300.256 1014.14 338.156 1039.97 408H1019.91C987.029 340.997 968.672 303.096 964.842 294.298C961.012 285.5 949.194 249.734 931.393 187H995.301Z" fill="#2F3676"/>
<path fill-rule="evenodd" clip-rule="evenodd" d="M1041.76 426L1040.76 405L1019.69 405C1004.7 415.5 980.557 422 980.557 422V426H1018.68L1031.73 424V426H1041.76Z" fill="#191847"/>
<path fill-rule="evenodd" clip-rule="evenodd" d="M925.373 426L924.37 405L903.3 405C888.314 415.5 864.17 422 864.17 422V426H902.297L915.34 424V426H925.373Z" fill="#191847"/>
<path fill-rule="evenodd" clip-rule="evenodd" d="M1063.47 223.284C1059.73 217.805 1038.08 159.536 1038.08 159.536L1020.31 162.108C1020.31 162.108 1048.92 223.983 1050.99 227.554C1053.67 232.193 1051.3 239.812 1049.69 244.978C1049.44 245.777 1049.21 246.518 1049.02 247.18C1052.4 248.153 1053.69 246.224 1055.04 244.189C1056.58 241.892 1058.2 239.461 1063.03 240.928C1064.89 241.495 1066.69 242.223 1068.44 242.934C1074.49 245.391 1080.05 247.649 1086.43 242.37C1087.44 241.534 1088.3 238.797 1085.08 237.203C1077.06 233.231 1065.3 225.963 1063.47 223.284ZM870.646 196.202L900.933 170.61L909.211 187.507L878.512 202.777C870.305 213.869 865.611 218.581 864.431 216.914C863.436 215.509 864.037 214.087 864.59 212.777C865.022 211.756 865.424 210.804 865.021 209.98C864.1 208.1 858.108 208.723 852.447 209.556C846.786 210.388 848.268 207.749 849.553 206.407C855.119 202.536 862.15 199.134 870.646 196.202Z" fill="#B28B67"/>
<path fill-rule="evenodd" clip-rule="evenodd" d="M963.806 87.3321L952.795 83.7027C937.857 120.893 915.58 156.876 878.36 187.27L887.564 203.097C920.275 183.892 951.241 168.973 963.806 140.155C968.023 130.483 964.15 98.897 963.806 87.3321Z" fill="#C5CFD6"/>
<path fill-rule="evenodd" clip-rule="evenodd" d="M1001.63 192C1001.63 192 954.312 197 927.143 192C924.899 191.587 924.545 187.842 925.586 185.301C941.792 145.724 952.905 111.192 952.905 83.7026C957.365 85.9439 968.517 84.3744 968.517 84.3744C988.497 112.703 997.681 145.206 1001.63 192Z" fill="#323337"/>
<path fill-rule="evenodd" clip-rule="evenodd" d="M974.243 82.0001C973.727 81.6538 973.454 81.4814 973.454 81.4814L973.484 82.0001H965.157C964.739 84.4527 964.126 93.5431 963.232 106.798C959.985 154.965 953.029 258.127 938.225 297.606H1040.37C1038.21 252.722 1021.61 199.047 1004.41 153.47C1017.1 166.056 1031.93 187.153 1043.91 222.273L1063.04 217.378C1043.54 133.638 986.414 90.4518 975.33 82.7439C975.221 82.4947 975.114 82.2467 975.007 82.0001H974.243Z" fill="#DDE3E9"/>
</svg>
