<svg width="60" height="53" viewBox="0 0 60 53" fill="none" xmlns="http://www.w3.org/2000/svg">
<path d="M57.5 23.8504H7.62625L26.7237 4.56919C27.7237 3.55955 27.7625 1.88212 26.81 0.822136C25.8587 -0.236526 24.2763 -0.278926 23.275 0.730712L1.465 22.7519C0.52125 23.7536 0 25.0839 0 26.5003C0 27.9154 0.52125 29.247 1.50875 30.2924L23.2763 52.2686C23.76 52.7575 24.38 53 25 53C25.66 53 26.32 52.7244 26.8112 52.1772C27.7637 51.1172 27.725 49.4411 26.725 48.4315L7.5475 29.1503H57.5C58.88 29.1503 60 27.9631 60 26.5003C60 25.0375 58.88 23.8504 57.5 23.8504V23.8504Z" fill="white"/>
</svg>
