<svg width="70" height="34" viewBox="0 0 108 52" fill="none" xmlns="http://www.w3.org/2000/svg">
<path d="M47.3984 35.9746H41.6758V42H39.2051V27.7812H48.2383V29.7734H41.6758V34.002H47.3984V35.9746ZM52.4961 42H50.123V31.4336H52.4961V42ZM49.9766 28.6895C49.9766 28.3249 50.0905 28.0221 50.3184 27.7812C50.5527 27.5404 50.8848 27.4199 51.3145 27.4199C51.7441 27.4199 52.0762 27.5404 52.3105 27.7812C52.5449 28.0221 52.6621 28.3249 52.6621 28.6895C52.6621 29.0475 52.5449 29.347 52.3105 29.5879C52.0762 29.8223 51.7441 29.9395 51.3145 29.9395C50.8848 29.9395 50.5527 29.8223 50.3184 29.5879C50.0905 29.347 49.9766 29.0475 49.9766 28.6895ZM57.6133 42H55.2402V27H57.6133V42ZM63.1797 28.8652V31.4336H65.0449V33.1914H63.1797V39.0898C63.1797 39.4935 63.2578 39.7865 63.4141 39.9688C63.5768 40.1445 63.8633 40.2324 64.2734 40.2324C64.5469 40.2324 64.8236 40.1999 65.1035 40.1348V41.9707C64.5632 42.1204 64.0423 42.1953 63.541 42.1953C61.7181 42.1953 60.8066 41.1895 60.8066 39.1777V33.1914H59.0684V31.4336H60.8066V28.8652H63.1797ZM72.3984 33.6016C72.0859 33.5495 71.7637 33.5234 71.4316 33.5234C70.3444 33.5234 69.612 33.9401 69.2344 34.7734V42H66.8613V31.4336H69.127L69.1855 32.6152C69.7585 31.6973 70.5527 31.2383 71.5684 31.2383C71.9069 31.2383 72.1868 31.2839 72.4082 31.375L72.3984 33.6016ZM79.918 42C79.8138 41.7982 79.7227 41.4694 79.6445 41.0137C78.8893 41.8014 77.9648 42.1953 76.8711 42.1953C75.8099 42.1953 74.944 41.8926 74.2734 41.2871C73.6029 40.6816 73.2676 39.9329 73.2676 39.041C73.2676 37.9147 73.6842 37.0521 74.5176 36.4531C75.3574 35.8477 76.5553 35.5449 78.1113 35.5449H79.5664V34.8516C79.5664 34.3047 79.4134 33.8685 79.1074 33.543C78.8014 33.2109 78.3359 33.0449 77.7109 33.0449C77.1706 33.0449 76.7279 33.1816 76.3828 33.4551C76.0378 33.722 75.8652 34.0638 75.8652 34.4805H73.4922C73.4922 33.901 73.6842 33.3607 74.0684 32.8594C74.4525 32.3516 74.9733 31.9544 75.6309 31.668C76.2949 31.3815 77.0339 31.2383 77.8477 31.2383C79.0846 31.2383 80.071 31.5508 80.8066 32.1758C81.5423 32.7943 81.9199 33.6667 81.9395 34.793V39.5586C81.9395 40.5091 82.0729 41.2676 82.3398 41.834V42H79.918ZM77.3105 40.291C77.7793 40.291 78.2188 40.1771 78.6289 39.9492C79.0456 39.7214 79.3581 39.4154 79.5664 39.0312V37.0391H78.2871C77.4082 37.0391 76.7474 37.1921 76.3047 37.498C75.862 37.804 75.6406 38.237 75.6406 38.7969C75.6406 39.2526 75.7904 39.6172 76.0898 39.8906C76.3958 40.1576 76.8027 40.291 77.3105 40.291ZM89.957 33.6016C89.6445 33.5495 89.3223 33.5234 88.9902 33.5234C87.903 33.5234 87.1706 33.9401 86.793 34.7734V42H84.4199V31.4336H86.6855L86.7441 32.6152C87.3171 31.6973 88.1113 31.2383 89.127 31.2383C89.4655 31.2383 89.7454 31.2839 89.9668 31.375L89.957 33.6016Z" fill="#B5B5B5"/>
<path d="M16.0964 18.7564C16.7878 19.6205 16.5811 18.9005 16.5811 36.1234C16.5811 37.6646 18.6172 38.5467 20.0521 37.6248C26.184 33.6321 27.4092 33.2863 27.4092 31.4187C27.4092 18.868 27.2398 19.5739 27.8939 18.7564L37.8514 7.05078H6.13904L16.0964 18.7564Z" fill="#B5B5B5"/>
<path d="M41.6127 0.954453C41.2569 0.365898 40.5591 0 39.7909 0H4.19941C2.54039 0 1.56422 1.61626 2.51589 2.79062C2.52371 2.80191 2.40787 2.66497 4.24496 4.82422H39.7453C41.3108 2.98411 42.3573 2.18908 41.6127 0.954453Z" fill="#B5B5B5"/>
</svg>
