<svg width="90" height="90" viewBox="0 0 90 90" fill="none" xmlns="http://www.w3.org/2000/svg">
<path d="M53.6133 45C53.6133 49.7571 49.7571 53.6133 45 53.6133C40.2429 53.6133 36.3867 49.7571 36.3867 45C36.3867 40.2429 40.2429 36.3867 45 36.3867C49.7571 36.3867 53.6133 40.2429 53.6133 45Z" fill="white"/>
<path d="M65.1434 29.7607C64.7294 28.6387 64.0688 27.6232 63.2105 26.7896C62.3769 25.9313 61.3621 25.2707 60.2394 24.8567C59.3289 24.5031 57.9611 24.0821 55.4418 23.9675C52.7165 23.8432 51.8994 23.8164 45 23.8164C38.0999 23.8164 37.2828 23.8425 34.5582 23.9668C32.0389 24.0821 30.6704 24.5031 29.7606 24.8567C28.6379 25.2707 27.6224 25.9313 26.7895 26.7896C25.9312 27.6232 25.2706 28.638 24.8559 29.7607C24.5023 30.6712 24.0813 32.0397 23.9667 34.559C23.8424 37.2836 23.8156 38.1007 23.8156 45.0008C23.8156 51.9002 23.8424 52.7173 23.9667 55.4426C24.0813 57.9619 24.5023 59.3297 24.8559 60.2402C25.2706 61.3629 25.9305 62.3777 26.7888 63.2113C27.6224 64.0696 28.6372 64.7302 29.7599 65.1442C30.6704 65.4985 32.0389 65.9194 34.5582 66.0341C37.2828 66.1584 38.0992 66.1845 44.9993 66.1845C51.9001 66.1845 52.7172 66.1584 55.4411 66.0341C57.9604 65.9194 59.3289 65.4985 60.2394 65.1442C62.493 64.2749 64.2741 62.4938 65.1434 60.2402C65.4971 59.3297 65.918 57.9619 66.0333 55.4426C66.1576 52.7173 66.1837 51.9002 66.1837 45.0008C66.1837 38.1007 66.1576 37.2836 66.0333 34.559C65.9187 32.0397 65.4977 30.6712 65.1434 29.7607V29.7607ZM45 58.2688C37.6714 58.2688 31.7306 52.3287 31.7306 45.0001C31.7306 37.6715 37.6714 31.7314 45 31.7314C52.3279 31.7314 58.2687 37.6715 58.2687 45.0001C58.2687 52.3287 52.3279 58.2688 45 58.2688ZM58.7933 34.3077C57.0808 34.3077 55.6924 32.9193 55.6924 31.2068C55.6924 29.4943 57.0808 28.1059 58.7933 28.1059C60.5058 28.1059 61.8942 29.4943 61.8942 31.2068C61.8935 32.9193 60.5058 34.3077 58.7933 34.3077Z" fill="white"/>
<path d="M45 0C20.151 0 0 20.151 0 45C0 69.849 20.151 90 45 90C69.849 90 90 69.849 90 45C90 20.151 69.849 0 45 0ZM70.684 55.6533C70.559 58.404 70.1216 60.282 69.483 61.9258C68.1406 65.3968 65.3968 68.1406 61.9258 69.483C60.2827 70.1216 58.404 70.5583 55.654 70.684C52.8985 70.8096 52.0182 70.8398 45.0007 70.8398C37.9825 70.8398 37.1029 70.8096 34.3467 70.684C31.5967 70.5583 29.718 70.1216 28.0749 69.483C26.35 68.8342 24.7886 67.8172 23.4977 66.5023C22.1835 65.2121 21.1665 63.65 20.5177 61.9258C19.8791 60.2827 19.4417 58.404 19.3167 55.654C19.1897 52.8978 19.1602 52.0175 19.1602 45C19.1602 37.9825 19.1897 37.1022 19.316 34.3467C19.441 31.596 19.8777 29.718 20.5163 28.0742C21.1652 26.35 22.1828 24.7879 23.4977 23.4977C24.7879 22.1828 26.35 21.1658 28.0742 20.517C29.718 19.8784 31.596 19.4417 34.3467 19.316C37.1022 19.1904 37.9825 19.1602 45 19.1602C52.0175 19.1602 52.8978 19.1904 55.6533 19.3167C58.404 19.4417 60.282 19.8784 61.9258 20.5163C63.65 21.1652 65.2121 22.1828 66.503 23.4977C67.8172 24.7886 68.8348 26.35 69.483 28.0742C70.1223 29.718 70.559 31.596 70.6847 34.3467C70.8103 37.1022 70.8398 37.9825 70.8398 45C70.8398 52.0175 70.8103 52.8978 70.684 55.6533V55.6533Z" fill="white"/>
</svg>
