<svg width="90" height="90" viewBox="0 0 90 90" fill="none" xmlns="http://www.w3.org/2000/svg">
<path d="M90 45C90 20.1445 69.8555 0 45 0C20.1445 0 0 20.1445 0 45C0 69.8555 20.1445 90 45 90C45.2637 90 45.5273 90 45.791 89.9824V54.9668H36.123V43.6992H45.791V35.4023C45.791 25.7871 51.6621 20.5488 60.2402 20.5488C64.3535 20.5488 67.8867 20.8477 68.9062 20.9883V31.043H63C58.3418 31.043 57.4277 33.2578 57.4277 36.5098V43.6816H68.5898L67.1309 54.9492H57.4277V88.2598C76.2363 82.8633 90 65.5488 90 45V45Z" fill="white"/>
</svg>
