<svg width="164" height="172" viewBox="0 0 164 172" fill="none" xmlns="http://www.w3.org/2000/svg">
<path d="M80.7866 36.1962L92.5009 24.416H8.78551C7.59138 24.416 5.85693 26.7106 5.85693 30.3061C5.85693 33.9016 7.59138 36.1962 8.78551 36.1962H80.7866Z" fill="black"/>
<path d="M94.4867 58.9559C92.1143 60.8115 89.1719 61.7756 86.1678 61.6814C83.1637 61.5873 80.2867 60.4409 78.0338 58.4404C75.7808 56.4398 74.2935 53.7107 73.8289 50.7246C73.3642 47.7385 73.9512 44.683 75.4887 42.0859H13.9027L0.248197 88.5701C0.0834782 89.2533 0.000160079 89.9537 0 90.6567V171.668H96.6429V90.6567C96.643 89.4529 96.7897 88.2537 97.0796 87.0858C97.0898 87.0457 97.1008 87.0052 97.1125 86.9651L108.577 47.9352L94.4867 58.9559ZM46.8571 100.987H46.8517C46.8537 101.444 46.7496 101.895 46.5478 102.304L41.0498 113.362L43.4728 147.478C43.5588 148.688 43.396 149.903 42.9945 151.047C42.593 152.192 41.9615 153.24 41.1394 154.128C40.3172 155.016 39.322 155.724 38.2157 156.209C37.1095 156.693 35.9159 156.943 34.7094 156.943H29.7191C28.5126 156.943 27.3191 156.693 26.2128 156.209C25.1066 155.724 24.1114 155.016 23.2892 154.128C22.467 153.24 21.8355 152.192 21.4341 151.047C21.0326 149.903 20.8698 148.688 20.9558 147.478L23.3788 113.362L17.8808 102.304C17.6789 101.895 17.5749 101.444 17.5769 100.987H17.5714V89.2066C17.5714 88.4256 17.88 87.6765 18.4292 87.1242C18.9784 86.5719 19.7233 86.2616 20.5 86.2616C21.2767 86.2616 22.0216 86.5719 22.5708 87.1242C23.12 87.6765 23.4286 88.4256 23.4286 89.2066V98.0418H29.2857V89.2066C29.2857 88.4256 29.5943 87.6765 30.1435 87.1242C30.6927 86.5719 31.4376 86.2616 32.2143 86.2616C32.991 86.2616 33.7359 86.5719 34.2851 87.1242C34.8343 87.6765 35.1429 88.4256 35.1429 89.2066V98.0418H41V89.2066C41 88.4256 41.3085 87.6765 41.8578 87.1242C42.407 86.5719 43.1519 86.2616 43.9286 86.2616C44.7053 86.2616 45.4502 86.5719 45.9994 87.1242C46.5486 87.6765 46.8571 88.4256 46.8571 89.2066V100.987ZM73.2564 154.034C72.432 154.949 71.4265 155.681 70.3043 156.182C69.1821 156.683 67.9681 156.942 66.7403 156.943H62.115C60.8875 156.943 59.6737 156.684 58.5518 156.183C57.4298 155.683 56.4247 154.951 55.601 154.036C54.7774 153.121 54.1537 152.042 53.7699 150.869C53.3862 149.697 53.2511 148.457 53.3732 147.228L55.6429 124.4V123.421L51.4045 121.29C50.8846 121.028 50.4539 120.617 50.1671 120.109C49.8802 119.601 49.7503 119.018 49.7938 118.435C49.8919 117.123 52.3995 86.2616 70.2857 86.2616C71.0624 86.2616 71.8073 86.5719 72.3565 87.1242C72.9057 87.6765 73.2143 88.4256 73.2143 89.2066V124.4L75.4839 147.227C75.6052 148.455 75.4697 149.695 75.0861 150.868C74.7025 152.04 74.0792 153.119 73.2564 154.034V154.034Z" fill="black"/>
<path d="M146.429 0.855469H164V33.2509H146.429V0.855469Z" fill="black"/>
<path d="M74.6583 7.96927L55.4136 18.5258H99.5713C100.151 18.5258 100.717 18.6985 101.198 19.0221C101.68 19.3457 102.055 19.8056 102.277 20.3438C102.499 20.8819 102.557 21.4741 102.444 22.0454C102.331 22.6167 102.052 23.1415 101.642 23.5533L81.5932 43.7155C80.3259 44.9888 79.5891 46.7002 79.5331 48.5009C79.4771 50.3015 80.1059 52.0559 81.2916 53.4064C82.4772 54.757 84.1304 55.602 85.9141 55.7694C87.6978 55.9367 89.4778 55.4137 90.8914 54.307L109.168 40.0117C109.89 39.4489 110.777 39.1428 111.691 39.1411H118.89C121.533 39.1381 124.066 38.0811 125.934 36.2021C127.803 34.323 128.854 31.7754 128.857 29.118C128.859 27.8714 129.352 26.6762 130.228 25.7947C131.105 24.9132 132.293 24.4173 133.533 24.4159H140.571V6.74561H79.4308C77.7634 6.74673 76.1227 7.16739 74.6583 7.96927V7.96927Z" fill="black"/>
<path d="M35.3446 115.712H29.0848L26.7965 147.898C26.7679 148.302 26.8222 148.707 26.956 149.088C27.0899 149.469 27.3004 149.819 27.5745 150.115C27.8485 150.411 28.1803 150.647 28.549 150.808C28.9178 150.97 29.3156 151.053 29.7177 151.053H34.708C35.1102 151.053 35.508 150.97 35.8767 150.808C36.2455 150.647 36.5772 150.411 36.8513 150.115C37.1253 149.819 37.3358 149.469 37.4697 149.088C37.6035 148.707 37.6579 148.302 37.6293 147.898L35.3446 115.712Z" fill="black"/>
<path d="M61.4999 121.602H67.3571V92.6885C63.7476 94.0715 60.7905 98.1228 58.5399 104.783C57.2542 108.738 56.3514 112.808 55.8438 116.938L59.8812 118.968C60.3676 119.213 60.7766 119.589 61.0625 120.054C61.3485 120.519 61.4999 121.055 61.4999 121.602V121.602Z" fill="black"/>
<path d="M28.1669 109.822H36.2614L39.19 103.932H25.2383L28.1669 109.822Z" fill="black"/>
<path d="M106.642 171.668H121.787L114.214 164.053L106.642 171.668Z" fill="black"/>
<path d="M67.6354 127.492H61.2218L59.2007 147.813C59.1598 148.223 59.2047 148.636 59.3325 149.027C59.4603 149.418 59.6683 149.778 59.9429 150.083C60.2175 150.388 60.5526 150.632 60.9268 150.799C61.3009 150.966 61.7057 151.053 62.115 151.053H66.7422C67.1515 151.053 67.5563 150.966 67.9304 150.799C68.3045 150.632 68.6397 150.388 68.9143 150.083C69.1889 149.778 69.3968 149.418 69.5247 149.027C69.6525 148.636 69.6974 148.223 69.6565 147.813L67.6354 127.492Z" fill="black"/>
<path d="M102.749 88.5701C102.584 89.2533 102.5 89.9537 102.5 90.6567V167.503L111.286 158.668V95.0967C111.286 94.3156 111.594 93.5665 112.143 93.0142C112.693 92.4619 113.438 92.1517 114.214 92.1517C114.991 92.1517 115.736 92.4619 116.285 93.0142C116.834 93.5665 117.143 94.3156 117.143 95.0967V158.668L125.929 167.503V90.903C125.929 90.0594 125.809 89.2203 125.572 88.4111L114.208 49.5571L102.749 88.5701Z" fill="black"/>
</svg>
