<svg width="184" height="170" viewBox="0 0 184 170" fill="none" xmlns="http://www.w3.org/2000/svg">
<path d="M174.235 51.0784H143.033C137.648 51.0784 133.267 55.332 133.267 60.5607V95.4146H121.596C122.245 93.1263 122.485 90.4272 122.327 87.2862V87.2858C122.074 74.012 119.592 62.8249 114.95 54.0352C111.346 47.2109 107.139 43.1195 103.53 40.6736C107.766 36.4461 110.216 30.4323 110.216 23.4964C110.216 11.0171 99.958 0.864746 87.35 0.864746C74.742 0.864746 64.4844 11.0171 64.4844 23.4964C64.4844 24.9413 65.6911 26.1121 67.1797 26.1121H69.0111C68.8425 27.0991 68.7527 28.105 68.7527 29.1265C68.7527 37.9211 75.2279 45.2714 83.789 46.9186C82.8916 50.1524 82.4456 53.9655 82.4474 58.2972L75.7249 63.9085L59.3679 65.1924L40.4996 59.1391C38.7702 58.5811 36.8102 57.9505 35.1096 59.1405C33.4339 60.3141 33.4339 62.3687 33.4339 63.0436V76.6578C33.4339 78.1027 34.6407 79.2735 36.1292 79.2735H39.3381L34.4164 95.7787C34.0028 97.1661 34.8265 98.617 36.2564 99.0184C37.6871 99.4219 39.181 98.6204 39.595 97.233L44.9504 79.2735H52.6131C43.0824 107.479 48.5205 126.306 56.8792 145.36H52.0341L31.854 123.462L36.1213 109.156C36.5353 107.768 35.7116 106.317 34.2816 105.916C32.8517 105.515 31.357 106.314 30.943 107.701L26.8616 121.386C14.2381 121.182 2.94653 129.628 0.0690043 141.78C-0.264138 143.188 0.641131 144.591 2.09122 144.915L5.9175 145.769C4.93999 155.623 11.6262 164.919 21.8231 167.197C23.3717 167.543 24.9335 167.714 26.4846 167.714C30.3098 167.714 34.0678 166.674 37.3917 164.652C41.2927 162.279 44.1993 158.792 45.7723 154.67L48.7915 155.344C49.691 155.546 50.5441 155.648 51.3966 155.203C52.1897 154.789 52.7169 154.041 52.9146 153.196C53.1043 152.34 53.2488 151.47 53.3491 150.592H109.72C111.523 161.469 121.059 169.668 132.448 169.668C143.837 169.668 153.373 161.469 155.176 150.592H157.233C157.233 150.592 157.641 150.596 157.734 150.596C158.505 150.596 159.618 150.513 160.533 149.61C160.99 149.159 161.527 148.351 161.486 147.067C161.41 144.61 161.03 142.237 160.382 139.981C162.529 127.332 160.463 119.628 157.401 113.599C159.337 112.368 160.62 110.246 160.62 107.835V100.646H174.235C179.619 100.646 184 96.3922 184 91.1634V60.5604C184.001 55.332 179.62 51.0784 174.235 51.0784V51.0784ZM34.5292 160.22C31.0789 162.318 26.9964 162.985 23.0332 162.1H23.0328C15.7382 160.47 10.8715 153.979 11.2262 146.959L40.4626 153.49C39.2529 156.254 37.2062 158.592 34.5292 160.22V160.22ZM48.0159 149.803L6.08928 140.44C9.32474 131.842 18.0317 126.15 27.5491 126.639L48.0878 148.926C48.0698 149.22 48.0461 149.512 48.0159 149.803ZM88.7279 104.221C87.9455 106.224 87.9455 108.693 87.9455 112.11V121.981H78.076V108.439C78.076 93.1287 86.6859 90.4003 90.5499 89.9501H116.975C116.868 93.4248 116.06 95.8948 114.526 97.4625C112.739 99.2894 109.68 100.179 105.175 100.184L95.5003 100.193C92.0503 100.194 89.7719 101.548 88.7279 104.221V104.221ZM87.9455 127.212V133.458C87.9211 133.458 87.8959 133.458 87.8701 133.458H68.725C68.9403 131.521 69.562 130.022 70.583 128.985C72.1017 127.442 74.2407 127.212 75.3806 127.212H87.9455ZM116.856 84.7189H92.3436C91.3592 81.7128 90.4816 78.4212 89.76 75.0381L97.2124 70.3437C101.281 67.7799 103.397 64.1572 103.019 60.4041C102.684 57.0772 100.353 54.1053 97.0816 52.8334C94.0937 51.672 90.8777 52.0368 88.0354 53.8005C88.2697 51.2985 88.706 49.0649 89.337 47.169C90.486 47.0539 91.627 46.836 92.7475 46.5161C95.0285 46.0021 97.1362 45.1828 99.0391 44.0964C104.23 47.1063 115.648 56.869 116.856 84.7189V84.7189ZM70.0723 20.8809C71.3434 12.523 78.6071 6.09663 87.35 6.09663C96.9856 6.09663 104.825 13.9024 104.825 23.4967C104.825 31.3001 100.969 37.5894 94.7521 40.3572V26.5938C94.7521 24.2106 93.8123 21.2872 89.3367 20.8917C89.2554 20.8844 89.1739 20.8809 89.0923 20.8809H70.0723ZM74.1437 29.1269C74.1437 28.0945 74.2648 27.0862 74.503 26.1125H88.96C89.1264 26.1299 89.2479 26.1487 89.3349 26.1658C89.3489 26.2628 89.3611 26.4023 89.3611 26.5938V41.8963C88.7189 41.9881 88.0727 42.0345 87.4269 42.0348C87.4208 42.0348 87.4147 42.0348 87.409 42.0348C80.0935 42.0282 74.1437 36.2404 74.1437 29.1269ZM70.6495 69.5561L77.0334 69.055C77.6023 69.0107 78.1417 68.792 78.5748 68.431L90.0964 58.8137L90.0982 58.812C91.2123 57.8804 92.4014 57.4026 93.5593 57.4026C94.0747 57.4026 94.5839 57.4975 95.0773 57.6893C96.5016 58.2428 97.5128 59.5081 97.6544 60.9123C97.8323 62.6795 96.6327 64.4708 94.2777 65.9551L81.439 74.0424H70.6502V69.5561H70.6495ZM59.2587 70.4504L65.2588 69.9796V74.0431H58.2865C57.3827 74.0431 57.1624 73.3141 57.1365 72.7027C57.1218 72.3561 57.1556 70.6178 59.2587 70.4504V70.4504ZM52.8794 68.6445C52.0675 69.9363 51.6884 71.4475 51.7506 72.9169C51.7667 73.2974 51.8167 73.6639 51.8864 74.0211C51.8864 74.0284 51.8821 74.0357 51.8835 74.0427H38.8252V64.1122L52.8898 68.6242C52.8855 68.6312 52.8833 68.6378 52.8794 68.6445V68.6445ZM58.3016 79.2742H82.2365C82.7572 79.2742 83.2672 79.1278 83.7038 78.8526L84.9239 78.0839C85.5107 80.6013 86.1792 83.0511 86.9073 85.3648C81.4103 86.9395 72.685 92.0284 72.685 108.439V122.243C70.7939 122.614 68.5568 123.47 66.6855 125.37C64.7129 127.373 63.5863 130.088 63.316 133.458H57.8787C52.3996 118.133 50.3159 101.826 58.3016 79.2742V79.2742ZM62.7442 145.351C61.7481 143.128 60.7878 140.913 59.8836 138.689H87.8697C91.4969 138.689 93.3358 137.087 93.3358 133.927V124.596V114.726H114.611C116.099 114.726 117.306 113.555 117.306 112.11C117.306 110.665 116.099 109.494 114.611 109.494H93.3552C93.3897 108.008 93.4878 106.793 93.7685 106.075C93.9047 105.726 94.0226 105.425 95.5028 105.425L105.18 105.415C111.241 105.41 115.577 103.987 118.436 101.065C118.568 100.929 118.693 100.787 118.818 100.646H135.963H155.231V107.835C155.231 108.734 154.45 109.494 153.526 109.494H126.693C125.204 109.494 123.997 110.665 123.997 112.11C123.997 113.555 125.204 114.726 126.693 114.726H151.942C154.072 118.563 155.988 123.338 155.874 130.882C150.542 123.694 141.909 119.072 132.112 119.072C124.244 119.072 116.861 122.067 111.323 127.506C106.408 132.332 103.457 138.595 102.849 145.36L62.7442 145.351ZM132.448 164.437C124.022 164.437 116.916 158.545 115.197 150.592H149.7C147.98 158.545 140.874 164.437 132.448 164.437V164.437ZM152.762 145.361H112.136H108.263C109.586 133.533 119.777 124.303 132.112 124.303C142.942 124.303 152.037 131.233 155.049 140.935C155.058 140.966 155.068 140.997 155.079 141.027C155.505 142.419 155.805 143.868 155.968 145.361H152.762ZM178.61 91.1638C178.61 93.5078 176.648 95.4146 174.235 95.4146H138.658V81.9064H178.61V91.1638ZM178.61 76.6749H138.658V71.1117H178.61V76.6749ZM178.61 65.8801H138.658V60.5607C138.658 58.2166 140.62 56.3099 143.033 56.3099H174.235C176.648 56.3099 178.61 58.217 178.61 60.5607V65.8801Z" fill="black"/>
</svg>
