<svg width="70" height="71" viewBox="0 0 70 71" fill="none" xmlns="http://www.w3.org/2000/svg">
<path d="M35 0.208496C15.7002 0.208496 0 15.9087 0 35.2085C0 54.5083 15.7002 70.2085 35 70.2085C54.2998 70.2085 70 54.5083 70 35.2085C70 15.9087 54.2998 0.208496 35 0.208496Z" fill="#FAAD37"/>
<path d="M50.313 38.125H37.917V50.521C37.917 52.1312 36.6107 53.4375 35.0005 53.4375C33.3903 53.4375 32.084 52.1312 32.084 50.521V38.125H19.688C18.0778 38.125 16.7715 36.8187 16.7715 35.2085C16.7715 33.5983 18.0778 32.292 19.688 32.292H32.084V19.896C32.084 18.2858 33.3903 16.9795 35.0005 16.9795C36.6107 16.9795 37.917 18.2858 37.917 19.896V32.292H50.313C51.9232 32.292 53.2295 33.5983 53.2295 35.2085C53.2295 36.8187 51.9232 38.125 50.313 38.125V38.125Z" fill="#FAFAFA"/>
</svg>
