<svg width="188" height="189" viewBox="0 0 188 189" fill="none" xmlns="http://www.w3.org/2000/svg">
<path d="M133.129 63.6652L131.118 57.0128C128.562 49.4561 120.394 45.4117 112.873 47.9791C108.643 49.4234 105.32 52.7618 103.883 57.0128L101.871 63.6652C100.178 69.2755 99.8231 75.2073 100.834 80.9809C101.756 85.8419 104.827 90.0182 109.181 92.3306L106.928 142.933C106.627 145.758 107.539 148.578 109.435 150.685C113.513 155.167 120.437 155.479 124.898 151.381C125.139 151.159 125.37 150.927 125.59 150.685C127.445 148.637 128.355 145.9 128.097 143.144L125.832 92.3243C130.18 90.0107 133.246 85.8372 134.166 80.9809C135.177 75.2073 134.822 69.2755 133.129 63.6652ZM127.994 79.8853C127.315 83.3776 124.838 86.243 121.492 87.4066C120.222 87.8864 119.404 89.1331 119.465 90.4951L121.846 143.642C121.956 144.684 121.613 145.724 120.906 146.494C119.019 148.371 115.981 148.371 114.094 146.494C113.352 145.661 113.014 144.541 113.173 143.434L115.536 90.4951C115.597 89.1331 114.778 87.8864 113.508 87.4066C110.162 86.243 107.685 83.3776 107.007 79.8853C106.168 75.092 106.464 70.1677 107.868 65.5101L109.88 58.8546C111.436 54.626 116.11 52.4659 120.319 54.0298C122.544 54.8566 124.298 56.6193 125.12 58.8546L127.132 65.5101C128.535 70.1681 128.83 75.092 127.994 79.8853Z" fill="black"/>
<path d="M84.5999 47.2246C82.8696 47.2246 81.4666 48.6343 81.4666 50.3729V77.4043L72.9847 85.9268C72.3572 86.5549 72.0235 87.4211 72.0666 88.3101L74.8083 143.406C74.8737 144.594 74.4444 145.756 73.6239 146.614C71.9088 148.352 69.1154 148.365 67.3846 146.641C67.3752 146.632 67.3662 146.623 67.3572 146.614C66.5363 145.756 66.1074 144.594 66.1728 143.406L68.9333 88.3101C68.9771 87.4215 68.6446 86.5557 68.0183 85.9268L59.5333 77.4043V50.3729C59.5333 48.6343 58.1303 47.2246 56.3999 47.2246C54.6696 47.2246 53.2666 48.6343 53.2666 50.3729V78.7077C53.2666 79.5428 53.5972 80.3433 54.1847 80.9336L62.6008 89.3931L59.9281 143.1C59.6437 148.967 64.1463 153.954 69.9849 154.24C75.8235 154.526 80.7875 150.002 81.0718 144.135C81.0887 143.79 81.0887 143.445 81.0718 143.101L78.3991 89.3935L86.8152 80.934C87.4027 80.3437 87.7333 79.5432 87.7333 78.7081V50.3733C87.7333 48.6343 86.3303 47.2246 84.5999 47.2246Z" fill="black"/>
<path d="M65.7999 47.2246C64.0695 47.2246 62.6665 48.6343 62.6665 50.3729V75.5593C62.6665 77.298 64.0695 78.7076 65.7999 78.7076C67.5303 78.7076 68.9332 77.298 68.9332 75.5593V50.3729C68.9332 48.6343 67.5303 47.2246 65.7999 47.2246Z" fill="black"/>
<path d="M75.1998 47.2246C73.4694 47.2246 72.0664 48.6343 72.0664 50.3729V75.5593C72.0664 77.298 73.4694 78.7076 75.1998 78.7076C76.9302 78.7076 78.3331 77.298 78.3331 75.5593V50.3729C78.3331 48.6343 76.9302 47.2246 75.1998 47.2246Z" fill="black"/>
<path d="M94 0C42.0854 0 0 42.2865 0 94.4493C0 146.612 42.0854 188.899 94 188.899C145.915 188.899 188 146.612 188 94.4493C187.941 42.3109 145.89 0.0590308 94 0ZM94 182.602C45.5461 182.602 6.26667 143.135 6.26667 94.4493C6.26667 45.7639 45.5461 6.29662 94 6.29662C142.454 6.29662 181.733 45.7639 181.733 94.4493C181.678 143.112 142.431 182.547 94 182.602Z" fill="black"/>
<path d="M104.171 153.548C104.003 151.817 102.471 150.551 100.748 150.72C100.708 150.724 100.667 150.729 100.627 150.734L100.64 150.731C96.2282 151.246 91.7718 151.246 87.3605 150.731C85.6411 150.529 84.0842 151.765 83.8825 153.492C83.6808 155.22 84.911 156.784 86.6304 156.987C91.5227 157.561 96.4648 157.561 101.357 156.987C103.079 156.819 104.339 155.279 104.171 153.548Z" fill="black"/>
<path d="M141.94 53.8801C140.828 52.5479 138.851 52.3736 137.526 53.4913C137.521 53.4948 137.517 53.4987 137.512 53.5023C136.19 54.6231 136.021 56.6089 137.136 57.9382C156.028 80.4723 154.583 113.793 133.812 134.59C132.586 135.818 132.582 137.812 133.804 139.043C135.026 140.275 137.01 140.279 138.236 139.051C161.32 115.945 162.93 78.9206 141.94 53.8801Z" fill="black"/>
<path d="M73.0035 41.6147C73.0015 41.6147 72.9995 41.6143 72.9976 41.6143C72.9944 41.6143 72.9913 41.6147 72.9878 41.6147H73.0035Z" fill="black"/>
<path d="M108.78 33.243C96.5344 30.2942 83.6917 31.0868 71.8974 35.5192C70.2775 36.1311 69.4585 37.9469 70.0676 39.5742C70.5266 40.8008 71.6938 41.6127 72.9976 41.6139C73.3725 41.6119 73.7438 41.543 74.0939 41.4096C84.7151 37.4188 96.2803 36.7061 107.307 39.3633C108.989 39.7717 110.683 38.7332 111.089 37.043C111.496 35.3527 110.462 33.6515 108.78 33.243Z" fill="black"/>
<path d="M54.0471 134.433C43.4842 123.838 37.5642 109.446 37.6002 94.4494C37.5693 82.4677 41.3465 70.789 48.382 61.1151C49.4219 59.7251 49.1434 57.7515 47.76 56.7066C46.3767 55.6618 44.4125 55.9416 43.3726 57.3316C43.3542 57.3564 43.3362 57.3812 43.3185 57.4064C25.2028 82.4307 27.8684 116.972 49.6071 138.891C50.8323 140.123 52.8196 140.123 54.0455 138.892C55.2714 137.662 55.2722 135.665 54.0471 134.433Z" fill="black"/>
</svg>
