<svg width="90" height="90" viewBox="0 0 90 90" fill="none" xmlns="http://www.w3.org/2000/svg">
<path d="M45 0C20.151 0 0 20.151 0 45C0 69.849 20.151 90 45 90C69.849 90 90 69.849 90 45C90 20.151 69.849 0 45 0ZM31.9235 68.0273H20.964V35.0553H31.9235V68.0273ZM26.4441 30.553H26.3727C22.695 30.553 20.3165 28.0213 20.3165 24.8573C20.3165 21.6218 22.7678 19.1602 26.5169 19.1602C30.266 19.1602 32.5731 21.6218 32.6445 24.8573C32.6445 28.0213 30.266 30.553 26.4441 30.553ZM71.4413 68.0273H60.4832V50.3881C60.4832 45.9551 58.8963 42.9318 54.931 42.9318C51.9035 42.9318 50.1004 44.9712 49.308 46.9398C49.0182 47.6443 48.9475 48.6289 48.9475 49.6143V68.0273H37.9887C37.9887 68.0273 38.1322 38.1487 37.9887 35.0553H48.9475V39.7238C50.4039 37.4771 53.0097 34.2815 58.8242 34.2815C66.0347 34.2815 71.4413 38.9939 71.4413 49.1212V68.0273Z" fill="white"/>
</svg>
